<svg width="64" height="64" viewBox="0 0 64 64" fill="none" xmlns="http://www.w3.org/2000/svg">
<rect width="64" height="64" rx="32" fill="#738FAC" fill-opacity="0.07"/>
<path fill-rule="evenodd" clip-rule="evenodd" d="M24.2354 20.5835H39.7654C40.4852 20.5835 41.0709 20.5835 41.5463 20.6223C42.0373 20.6624 42.4763 20.7477 42.8848 20.9559C43.5277 21.2835 44.0504 21.8061 44.378 22.449C44.5862 22.8576 44.6714 23.2966 44.7116 23.7876C44.7504 24.263 44.7504 24.8486 44.7504 25.5685V36.7231C45.3672 36.961 45.8394 37.4806 46.0127 38.1276C46.0846 38.3958 46.0842 38.6991 46.0838 39.0331C46.0837 39.059 46.0837 39.085 46.0837 39.1113C46.0837 39.1488 46.0837 39.1857 46.0837 39.2221C46.084 39.9411 46.0842 40.448 45.9673 40.8845C45.6514 42.0635 44.7304 42.9845 43.5513 43.3004C43.1149 43.4174 42.608 43.4172 41.8889 43.4169C41.8526 43.4168 41.8156 43.4168 41.7782 43.4168H22.2226C22.1851 43.4168 22.1482 43.4168 22.1118 43.4169C21.3928 43.4172 20.8859 43.4174 20.4494 43.3004C19.2704 42.9845 18.3494 42.0635 18.0335 40.8845C17.9165 40.448 17.9167 39.9411 17.917 39.2221C17.917 39.1857 17.9171 39.1488 17.9171 39.1113V38.6668C17.9171 37.7806 18.4704 37.0237 19.2504 36.7226L19.2504 25.5685C19.2504 24.8486 19.2504 24.263 19.2892 23.7876C19.3293 23.2966 19.4146 22.8576 19.6228 22.449C19.9503 21.8061 20.473 21.2835 21.1159 20.9559C21.5245 20.7477 21.9635 20.6624 22.4545 20.6223C22.9299 20.5835 23.5155 20.5835 24.2354 20.5835ZM20.7504 36.5835H27.1167C27.1363 36.5835 27.1557 36.5835 27.175 36.5835C27.4431 36.5832 27.6921 36.5829 27.9344 36.6411C28.147 36.6921 28.3502 36.7763 28.5366 36.8905C28.7492 37.0207 28.925 37.197 29.1144 37.3868C29.128 37.4004 29.1417 37.4142 29.1556 37.428L29.2392 37.5117C29.4951 37.7675 29.5399 37.8056 29.5812 37.8309C29.6334 37.8629 29.6903 37.8864 29.7498 37.9007C29.7969 37.912 29.8556 37.9168 30.2174 37.9168H33.7834C34.1452 37.9168 34.2039 37.912 34.2509 37.9007C34.3105 37.8864 34.3674 37.8629 34.4196 37.8309C34.4608 37.8056 34.5057 37.7675 34.7616 37.5117L34.8452 37.428C34.859 37.4142 34.8727 37.4004 34.8864 37.3868C35.0757 37.197 35.2516 37.0207 35.4641 36.8905C35.6505 36.7763 35.8537 36.6921 36.0663 36.6411C36.3087 36.5829 36.5577 36.5832 36.8257 36.5835C36.8451 36.5835 36.8645 36.5835 36.884 36.5835H43.2504V25.6002C43.2504 24.8411 43.2498 24.3168 43.2165 23.9098C43.184 23.5115 43.124 23.2919 43.0415 23.13C42.8577 22.7694 42.5645 22.4762 42.2039 22.2924C42.042 22.2099 41.8224 22.1499 41.4241 22.1173C41.0171 22.0841 40.4928 22.0835 39.7337 22.0835H24.2671C23.5079 22.0835 22.9837 22.0841 22.5767 22.1173C22.1784 22.1499 21.9588 22.2099 21.7969 22.2924C21.4363 22.4762 21.143 22.7694 20.9593 23.13C20.8768 23.2919 20.8168 23.5115 20.7842 23.9098C20.751 24.3168 20.7504 24.8411 20.7504 25.6002V36.5835ZM36.884 38.0835C36.5222 38.0835 36.4635 38.0883 36.4165 38.0996C36.357 38.1139 36.3001 38.1375 36.2479 38.1695C36.2066 38.1947 36.1617 38.2328 35.9059 38.4887L35.8222 38.5723C35.8084 38.5861 35.7947 38.5999 35.781 38.6136C35.5917 38.8033 35.4158 38.9796 35.2033 39.1098C35.0169 39.2241 34.8137 39.3082 34.6011 39.3593C34.3587 39.4175 34.1098 39.4172 33.8417 39.4169C33.8224 39.4169 33.8029 39.4168 33.7834 39.4168H30.2174C30.1978 39.4168 30.1784 39.4169 30.1591 39.4169C29.891 39.4172 29.642 39.4175 29.3997 39.3593C29.1871 39.3082 28.9839 39.2241 28.7975 39.1098C28.5849 38.9796 28.4091 38.8033 28.2197 38.6136C28.2061 38.5999 28.1924 38.5861 28.1785 38.5723L28.0949 38.4887C27.839 38.2328 27.7942 38.1947 27.7529 38.1695C27.7007 38.1375 27.6438 38.1139 27.5843 38.0996C27.5372 38.0883 27.4785 38.0835 27.1167 38.0835H20.0004C19.6782 38.0835 19.4171 38.3447 19.4171 38.6668V39.1113C19.4171 39.9862 19.4235 40.2765 19.4824 40.4962C19.6596 41.1577 20.1762 41.6743 20.8376 41.8515C21.0573 41.9104 21.3477 41.9168 22.2226 41.9168H41.7782C42.6531 41.9168 42.9434 41.9104 43.1631 41.8515C43.8245 41.6743 44.3412 41.1577 44.5184 40.4962C44.5773 40.2765 44.5837 39.9862 44.5837 39.1113C44.5837 38.6497 44.5773 38.566 44.5638 38.5159C44.5099 38.3145 44.3527 38.1573 44.1514 38.1034C44.1012 38.0899 44.0175 38.0835 43.5559 38.0835H36.884Z" fill="#748392"/>
</svg>
